<svg width="31" height="30" viewBox="0 0 31 30" fill="none" xmlns="http://www.w3.org/2000/svg">
<g clip-path="url(#clip0_98_1419)">
<rect x="0.5" width="30" height="30" fill="#1A1A1A"/>
<path d="M18.3237 14.4904C17.4565 14.4904 16.7585 15.1962 16.7585 16.0786C16.7585 16.9413 17.4565 17.6471 18.3237 17.6471C19.2121 17.6471 19.9101 16.9413 19.9101 16.0786C19.9101 15.1962 19.2121 14.4904 18.3237 14.4904ZM12.7186 14.4904C11.8514 14.4904 11.1322 15.1962 11.1322 16.0786C11.1322 16.9413 11.8514 17.6471 12.7186 17.6471C13.5858 17.6471 14.2838 16.9413 14.2838 16.0786C14.2838 15.1962 13.5858 14.4904 12.7186 14.4904ZM19.8043 21C19.8043 21 19.2544 20.3726 18.7891 19.8432C20.8196 19.3138 21.5811 18.1373 21.5811 18.1373C20.9465 18.5295 20.3331 18.804 19.8043 18.9804C19.0217 19.2746 18.2814 19.4902 17.5623 19.6079C16.0817 19.8628 14.728 19.804 13.5646 19.6079C12.6763 19.451 11.9148 19.2157 11.3014 18.9804C10.9418 18.8628 10.5611 18.7059 10.1592 18.4903C10.1169 18.4706 10.0746 18.451 10.0323 18.4118C9.99001 18.4118 9.96886 18.3922 9.94771 18.3922C9.67274 18.2354 9.52468 18.1373 9.52468 18.1373C9.52468 18.1373 10.265 19.2746 12.2321 19.8236C11.7667 20.3726 11.1957 21 11.1957 21C7.79025 20.902 6.5 18.8236 6.5 18.8236C6.5 14.2159 8.72092 10.4905 8.72092 10.4905C10.9418 8.94147 13.0358 9.00029 13.0358 9.00029L13.2051 9.15715C10.413 9.90223 9.14395 11.0395 9.14395 11.0395C9.14395 11.0395 9.48237 10.863 10.0746 10.6277C11.7244 9.96105 13.0147 9.78459 13.5646 9.72577C13.6492 9.72577 13.7338 9.70616 13.8184 9.68655C14.7703 9.58851 15.8278 9.5493 16.9489 9.66694C18.4083 9.8238 19.9736 10.2356 21.5811 11.0395C21.5811 11.0395 20.3754 9.96105 17.7526 9.21597L17.9642 9.00029C17.9642 9.00029 20.0582 8.94147 22.2791 10.4905C22.2791 10.4905 24.5 14.2159 24.5 18.8236C24.5 18.8236 23.2098 20.902 19.8043 21Z" fill="white"/>
</g>
<defs>
<clipPath id="clip0_98_1419">
<rect width="30" height="30" fill="white" transform="translate(0.5)"/>
</clipPath>
</defs>
</svg>
