<svg width="26" height="26" viewBox="0 0 26 26" fill="none" xmlns="http://www.w3.org/2000/svg">
<path d="M9.43759 6.23066C9.9514 6.40856 10.4402 6.65447 10.8915 6.96213C11.5289 6.79563 12.1843 6.71199 12.8422 6.71318C13.5216 6.71318 14.1771 6.79989 14.7915 6.96143C15.2426 6.65407 15.7312 6.40839 16.2447 6.23066C16.7216 6.06492 17.401 5.79639 17.8047 6.25304C18.0784 6.56353 18.1468 7.08381 18.1954 7.48102C18.2501 7.92438 18.2631 8.502 18.1194 9.07544C18.6688 9.80062 19 10.6657 19 11.6083C19 13.0363 18.2433 14.2762 17.1232 15.1349C16.5842 15.543 15.9864 15.8629 15.3511 16.0832C15.4976 16.4258 15.579 16.8049 15.579 17.2028V19.3007C15.579 19.4862 15.5069 19.664 15.3786 19.7952C15.2503 19.9263 15.0762 20 14.8948 20H10.7896C10.6081 20 10.4341 19.9263 10.3058 19.7952C10.1775 19.664 10.1054 19.4862 10.1054 19.3007V18.6077C9.45196 18.6895 8.90391 18.6168 8.43797 18.4147C7.95082 18.2035 7.61145 17.8762 7.35625 17.5629C7.11404 17.2664 6.84994 16.5979 6.46815 16.4678C6.38288 16.4388 6.30404 16.3929 6.23613 16.3327C6.16822 16.2726 6.11256 16.1993 6.07235 16.1172C5.99113 15.9513 5.97771 15.7592 6.03505 15.5832C6.09239 15.4072 6.2158 15.2617 6.37811 15.1786C6.54043 15.0956 6.72836 15.0819 6.90057 15.1405C7.35625 15.2958 7.65319 15.6314 7.8564 15.9014C8.18481 16.3349 8.45165 16.9014 8.97165 17.1273C9.1858 17.2203 9.49985 17.2811 9.99111 17.2126L10.1054 17.1888C10.1067 16.8082 10.1842 16.432 10.3332 16.0832C9.69799 15.8629 9.10015 15.543 8.56113 15.1349C7.44109 14.2762 6.68436 13.037 6.68436 11.6083C6.68436 10.6671 7.01483 9.80271 7.56287 9.07823C7.41919 8.5048 7.43151 7.92578 7.48624 7.48172L7.48967 7.45514C7.53961 7.04815 7.59777 6.56912 7.87692 6.25304C8.2806 5.79639 8.9607 6.06562 9.4369 6.23136L9.43759 6.23066Z" fill="white"/>
</svg>
