<svg width="31" height="30" viewBox="0 0 31 30" fill="none" xmlns="http://www.w3.org/2000/svg">
<g clip-path="url(#clip0_98_1423)">
<rect x="0.5" width="30" height="30" fill="#1A1A1A"/>
<path d="M15.4998 7C17.7869 7 19.8506 7.95944 21.3094 9.5H17.9373C15.9268 9.5 14.3123 11.1486 14.3123 13.1422C14.3123 15.1075 15.8963 16.7344 17.8748 16.7499V22.6418C17.1253 22.8745 16.328 23 15.4998 23C15.0084 23 14.528 22.9558 14.0623 22.8714V19.3125L14.0623 19.2745C14.0623 18.7819 14.0623 18.3533 14.0334 17.9996C14.0028 17.6251 13.9349 17.2473 13.7489 16.8823C13.4733 16.3413 13.0334 15.9015 12.4925 15.6259C12.1275 15.4399 11.7497 15.372 11.3752 15.3414C11.0214 15.3125 10.5928 15.3125 10.1003 15.3125H10.0623H7.50573C7.50176 15.2089 7.49976 15.1047 7.49976 15C7.49976 10.5817 11.0815 7 15.4998 7ZM17.9373 11.5H22.6958C23.2107 12.5564 23.4998 13.7433 23.4998 15C23.4998 17.8024 22.0586 20.2699 19.8748 21.6991V16.7216C19.8748 15.6327 18.992 14.75 17.9032 14.75C17.033 14.75 16.3123 14.0293 16.3123 13.1422C16.3123 12.2362 17.0482 11.5 17.9373 11.5ZM12.0623 22.2262C10.0446 21.2645 8.49292 19.4821 7.83886 17.3125H10.0623C10.6038 17.3125 10.9498 17.3133 11.2123 17.3347C11.4631 17.3552 11.5484 17.3895 11.5845 17.4079C11.7491 17.4918 11.883 17.6256 11.9669 17.7903C11.9853 17.8263 12.0195 17.9116 12.04 18.1624C12.0615 18.4249 12.0623 18.7709 12.0623 19.3125V22.2262Z" stroke="white" stroke-width="2"/>
</g>
<defs>
<clipPath id="clip0_98_1423">
<rect width="30" height="30" fill="white" transform="translate(0.5)"/>
</clipPath>
</defs>
</svg>
