<svg width="31" height="30" viewBox="0 0 31 30" fill="none" xmlns="http://www.w3.org/2000/svg">
<g clip-path="url(#clip0_98_1415)">
<rect x="0.5" width="30" height="30" fill="#1A1A1A"/>
<path d="M22.7593 11.485C22.7667 11.6367 22.7695 11.7903 22.7695 11.9419C22.7695 16.6142 19.2614 22 12.8467 22C10.876 22 9.04386 21.4148 7.5 20.411C7.77348 20.4438 8.05065 20.4607 8.33152 20.4607C9.96685 20.4607 11.4701 19.8951 12.6628 18.9485C11.1374 18.9195 9.84859 17.8989 9.40511 16.4944C9.61761 16.5346 9.83658 16.5562 10.0611 16.5562C10.3798 16.5562 10.6884 16.514 10.9804 16.4335C9.38478 16.1077 8.18277 14.6798 8.18277 12.9663C8.18277 12.9513 8.18277 12.9373 8.18277 12.9223C8.65304 13.1873 9.19168 13.3464 9.76266 13.3652C8.82674 12.7303 8.21049 11.6498 8.21049 10.4223C8.21049 9.77528 8.38234 9.1676 8.68353 8.64513C10.4029 10.7846 12.9742 12.191 15.8725 12.339C15.8134 12.0796 15.7829 11.8109 15.7829 11.5328C15.7829 9.58146 17.3434 8 19.2697 8C20.2731 8 21.1795 8.4279 21.816 9.11517C22.6097 8.95599 23.3562 8.66199 24.0307 8.25749C23.7701 9.0824 23.2167 9.77528 22.497 10.2125C23.2028 10.1264 23.8736 9.9382 24.5 9.65637C24.0325 10.3661 23.4412 10.9878 22.7593 11.485Z" fill="white"/>
</g>
<defs>
<clipPath id="clip0_98_1415">
<rect width="30" height="30" fill="white" transform="translate(0.5)"/>
</clipPath>
</defs>
</svg>
